<svg xmlns="http://www.w3.org/2000/svg" width="40" height="40" fill="none"><path fill="#4555FF" d="M20.54 1.797a6.831 6.831 0 0 1 6.403 0L35.82 6.51c.205.11.241.387.07.545l-1.335 1.228a.341.341 0 0 1-.39.05L26.86 4.478a6.831 6.831 0 0 0-6.373 0l-9.505 5.017a6.741 6.741 0 0 0-3.605 5.958v9.094a6.74 6.74 0 0 0 3.605 5.958l9.505 5.017a6.83 6.83 0 0 0 6.373 0l7.306-3.856a.341.341 0 0 1 .39.05l1.335 1.228a.336.336 0 0 1-.07.545l-8.878 4.714a6.83 6.83 0 0 1-6.404 0L8.59 31.858A6.74 6.74 0 0 1 5 25.908V14.092a6.74 6.74 0 0 1 3.59-5.95l11.95-6.345Z"/><path fill="#4555FF" d="M32.496 10.204a.336.336 0 0 0-.07-.545L25.74 6.1a5.123 5.123 0 0 0-4.811 0l-9.166 4.879a5.056 5.056 0 0 0-2.688 4.46v9.122a5.056 5.056 0 0 0 2.688 4.46l9.166 4.879c1.502.8 3.308.8 4.811 0l6.686-3.559a.336.336 0 0 0 .07-.544l-5.261-4.852a6.717 6.717 0 0 1 0-9.89l5.261-4.851Z"/></svg>