<svg xmlns="http://www.w3.org/2000/svg" data-framer-name="Logotype" class="framer-813ef framer-196nfe7" role="presentation" style="--r5s4bu: rgb(154, 162, 247); --1fbjc5v: var(--token-87d6215c-4ecd-4117-a34d-7a83d39c904c, rgb(69, 85, 255)); --jtu17q: rgb(237, 238, 248); opacity: 1;" viewBox="0 0 164 40" data-fc-idx="0"><svg display="block" role="presentation" viewBox="0 0 164 40" xmlns="http://www.w3.org/2000/svg" id="3426335927"><g d="M 16.25 0.839 C 18.342 -0.28 20.854 -0.28 22.946 0.839 L 32.23 5.801 C 32.445 5.916 32.482 6.209 32.303 6.375 L 30.907 7.667 C 30.796 7.77 30.633 7.791 30.5 7.72 L 22.86 3.661 C 20.776 2.553 18.278 2.553 16.195 3.661 L 6.255 8.942 C 3.936 10.175 2.486 12.588 2.486 15.214 L 2.486 24.786 C 2.486 27.413 3.936 29.826 6.255 31.058 L 16.195 36.339 C 18.279 37.447 20.776 37.447 22.86 36.339 L 30.5 32.28 C 30.633 32.209 30.797 32.23 30.907 32.333 L 32.303 33.625 C 32.388 33.703 32.429 33.817 32.415 33.931 C 32.4 34.045 32.331 34.145 32.23 34.199 L 22.946 39.161 C 20.854 40.279 18.342 40.279 16.25 39.161 L 3.754 32.482 C 1.443 31.247 0 28.839 0 26.219 L 0 13.781 C 0 11.161 1.443 8.753 3.754 7.518 Z M 28.754 9.688 C 28.838 9.61 28.879 9.496 28.864 9.383 C 28.85 9.269 28.781 9.169 28.68 9.115 L 21.688 5.368 C 20.117 4.526 18.228 4.526 16.657 5.368 L 7.072 10.504 C 5.341 11.431 4.261 13.236 4.261 15.199 L 4.261 24.801 C 4.261 26.764 5.341 28.569 7.072 29.496 L 16.657 34.632 C 18.228 35.474 20.117 35.474 21.688 34.632 L 28.68 30.885 C 28.781 30.831 28.849 30.731 28.864 30.618 C 28.879 30.504 28.838 30.391 28.754 30.313 L 23.251 25.206 C 20.223 22.396 20.223 17.604 23.251 14.794 L 28.754 9.688 Z M 154.329 29.954 C 153.906 29.447 153.585 28.864 153.365 28.204 C 153.163 27.545 153.061 26.615 153.061 25.415 L 153.061 9.666 L 156.51 9.666 L 156.51 25.009 C 156.51 26.328 156.654 27.343 156.941 28.052 C 157.229 28.745 157.601 29.328 158.058 29.802 L 158.058 29.954 L 154.329 29.954 Z M 142.384 30.284 C 141.033 30.284 139.899 29.954 138.986 29.295 C 138.074 28.618 137.38 27.68 136.906 26.48 C 136.45 25.279 136.223 23.893 136.223 22.32 C 136.223 20.731 136.45 19.345 136.906 18.161 C 137.38 16.978 138.074 16.056 138.986 15.397 C 139.916 14.738 141.058 14.408 142.41 14.408 C 143.509 14.408 144.396 14.628 145.074 15.067 C 145.766 15.507 146.274 16.056 146.594 16.716 L 147.204 16.716 L 147.204 14.738 L 150.323 14.738 L 150.323 29.954 L 147.204 29.954 L 147.204 27.976 L 146.594 27.976 C 146.274 28.602 145.766 29.143 145.074 29.599 C 144.396 30.055 143.5 30.284 142.384 30.284 Z M 143.17 27.697 C 144.32 27.697 145.234 27.215 145.909 26.251 C 146.586 25.271 146.924 23.969 146.924 22.346 C 146.924 20.723 146.586 19.429 145.909 18.466 C 145.234 17.485 144.32 16.995 143.17 16.995 C 142.089 16.995 141.253 17.451 140.66 18.364 C 140.069 19.277 139.773 20.605 139.773 22.346 C 139.773 24.087 140.069 25.415 140.66 26.328 C 141.253 27.241 142.089 27.697 143.17 27.697 Z M 127.69 29.954 L 127.69 14.738 L 130.785 14.738 L 130.785 17.426 L 131.394 17.426 C 131.495 16.969 131.68 16.521 131.951 16.082 C 132.223 15.642 132.637 15.287 133.194 15.017 C 133.769 14.729 134.546 14.585 135.528 14.585 L 136.186 14.585 L 136.186 17.73 L 135.249 17.73 C 133.778 17.73 132.72 18.111 132.079 18.872 C 131.435 19.632 131.115 20.79 131.115 22.346 L 131.115 29.954 Z M 121.478 29.954 C 121.09 29.498 120.776 28.948 120.54 28.306 C 120.32 27.663 120.21 26.7 120.21 25.415 L 120.21 17.248 L 118.13 17.248 L 118.13 14.738 L 120.26 14.738 L 120.26 10.934 L 123.609 10.934 L 123.609 14.738 L 126.119 14.738 L 126.119 17.248 L 123.634 17.248 L 123.634 24.983 C 123.634 26.336 123.778 27.367 124.065 28.077 C 124.37 28.771 124.733 29.345 125.155 29.802 L 125.155 29.954 Z M 111.854 30.334 C 110.299 30.334 109.039 30.081 108.076 29.574 C 107.129 29.05 106.419 28.382 105.945 27.57 C 105.489 26.759 105.235 25.93 105.185 25.085 L 108.481 25.085 C 108.549 25.558 108.718 26.006 108.989 26.429 C 109.276 26.852 109.665 27.19 110.155 27.443 C 110.646 27.697 111.263 27.824 112.006 27.824 C 112.851 27.824 113.486 27.663 113.909 27.342 C 114.331 27.004 114.543 26.564 114.543 26.023 C 114.543 25.567 114.365 25.178 114.01 24.857 C 113.655 24.518 113.096 24.214 112.336 23.944 L 110.51 23.335 C 109.665 23.031 108.886 22.701 108.176 22.346 C 107.484 21.974 106.926 21.509 106.503 20.951 C 106.098 20.376 105.895 19.649 105.895 18.77 C 105.895 17.451 106.385 16.386 107.366 15.575 C 108.346 14.763 109.716 14.357 111.474 14.357 C 112.741 14.357 113.781 14.569 114.593 14.991 C 115.421 15.397 116.046 15.955 116.47 16.665 C 116.893 17.358 117.138 18.136 117.205 18.998 L 114.035 18.998 C 113.951 18.373 113.689 17.849 113.249 17.426 C 112.826 17.003 112.193 16.792 111.346 16.792 C 110.62 16.792 110.061 16.944 109.673 17.248 C 109.301 17.553 109.115 17.959 109.115 18.466 C 109.115 18.973 109.301 19.396 109.673 19.734 C 110.061 20.055 110.646 20.351 111.423 20.621 L 113.224 21.205 C 114.069 21.492 114.839 21.822 115.531 22.194 C 116.225 22.549 116.765 23.014 117.155 23.589 C 117.56 24.146 117.763 24.865 117.763 25.744 C 117.763 27.114 117.255 28.221 116.241 29.067 C 115.244 29.912 113.781 30.334 111.854 30.334 Z M 95.751 30.284 C 94.398 30.284 93.265 29.954 92.352 29.295 C 91.439 28.618 90.746 27.68 90.273 26.48 C 89.816 25.279 89.588 23.893 89.588 22.32 C 89.588 20.731 89.816 19.345 90.273 18.161 C 90.746 16.978 91.439 16.056 92.352 15.397 C 93.282 14.738 94.423 14.408 95.776 14.408 C 96.875 14.408 97.763 14.628 98.439 15.067 C 99.132 15.507 99.639 16.056 99.96 16.716 L 100.569 16.716 L 100.569 14.738 L 103.688 14.738 L 103.688 29.954 L 100.569 29.954 L 100.569 27.976 L 99.96 27.976 C 99.639 28.602 99.132 29.143 98.439 29.599 C 97.763 30.055 96.866 30.284 95.751 30.284 Z M 96.537 27.697 C 97.686 27.697 98.599 27.215 99.276 26.251 C 99.951 25.271 100.29 23.969 100.29 22.346 C 100.29 20.723 99.951 19.429 99.276 18.466 C 98.599 17.485 97.686 16.995 96.537 16.995 C 95.455 16.995 94.618 17.451 94.026 18.364 C 93.434 19.277 93.138 20.605 93.138 22.346 C 93.138 24.087 93.434 25.415 94.026 26.328 C 94.618 27.241 95.455 27.697 96.537 27.697 Z M 79.773 30.284 C 78.437 30.284 77.313 29.954 76.4 29.295 C 75.504 28.618 74.819 27.68 74.346 26.48 C 73.889 25.279 73.661 23.893 73.661 22.32 C 73.661 20.731 73.889 19.345 74.346 18.161 C 74.819 16.978 75.504 16.056 76.4 15.397 C 77.313 14.738 78.429 14.408 79.748 14.408 C 80.762 14.408 81.591 14.594 82.233 14.966 C 82.876 15.338 83.374 15.845 83.729 16.488 L 84.338 16.488 L 84.338 9.666 L 87.762 9.666 L 87.762 29.954 L 84.642 29.954 L 84.642 27.976 L 84.034 27.976 C 83.712 28.602 83.205 29.142 82.512 29.599 C 81.836 30.055 80.923 30.284 79.773 30.284 Z M 80.61 27.697 C 81.76 27.697 82.673 27.215 83.349 26.251 C 84.025 25.271 84.363 23.969 84.363 22.346 C 84.363 20.723 84.025 19.429 83.349 18.466 C 82.673 17.485 81.76 16.995 80.61 16.995 C 79.528 16.995 78.691 17.451 78.099 18.364 C 77.507 19.277 77.212 20.604 77.212 22.346 C 77.212 24.087 77.507 25.414 78.099 26.327 C 78.691 27.24 79.528 27.697 80.61 27.697 Z M 63.948 30.284 C 62.596 30.284 61.463 29.954 60.55 29.295 C 59.637 28.618 58.944 27.68 58.47 26.48 C 58.014 25.279 57.786 23.893 57.786 22.32 C 57.786 20.731 58.014 19.345 58.47 18.161 C 58.944 16.978 59.637 16.056 60.55 15.397 C 61.48 14.738 62.621 14.408 63.974 14.408 C 65.073 14.408 65.96 14.628 66.636 15.067 C 67.33 15.507 67.837 16.056 68.158 16.716 L 68.767 16.716 L 68.767 14.738 L 71.886 14.738 L 71.886 29.954 L 68.767 29.954 L 68.767 27.976 L 68.158 27.976 C 67.837 28.602 67.33 29.143 66.636 29.599 C 65.96 30.055 65.064 30.284 63.948 30.284 Z M 64.734 27.697 C 65.884 27.697 66.797 27.215 67.473 26.251 C 68.15 25.271 68.488 23.969 68.488 22.346 C 68.488 20.723 68.15 19.429 67.473 18.466 C 66.797 17.485 65.884 16.995 64.734 16.995 C 63.652 16.995 62.815 17.451 62.224 18.364 C 61.632 19.277 61.336 20.605 61.336 22.346 C 61.336 24.087 61.632 25.415 62.224 26.328 C 62.815 27.241 63.652 27.697 64.734 27.697 Z M 48.902 30.334 C 46.095 30.334 43.914 29.43 42.359 27.621 C 40.803 25.812 40.025 23.293 40.025 20.063 C 40.025 16.834 40.795 14.315 42.333 12.506 C 43.889 10.697 46.07 9.792 48.876 9.792 C 50.533 9.792 51.962 10.105 53.162 10.731 C 54.363 11.356 55.301 12.227 55.977 13.343 C 56.67 14.459 57.085 15.752 57.22 17.223 L 53.644 17.223 C 53.492 15.786 52.993 14.645 52.148 13.799 C 51.319 12.954 50.229 12.531 48.876 12.531 C 47.186 12.531 45.892 13.191 44.996 14.509 C 44.117 15.828 43.677 17.688 43.677 20.089 C 43.677 22.523 44.125 24.383 45.021 25.668 C 45.934 26.953 47.211 27.596 48.851 27.596 C 50.271 27.596 51.395 27.156 52.224 26.277 C 53.052 25.398 53.526 24.273 53.644 22.904 L 57.22 22.904 C 57.085 24.358 56.67 25.651 55.977 26.784 C 55.301 27.9 54.363 28.771 53.162 29.396 C 51.979 30.022 50.559 30.334 48.902 30.334 Z M 160.624 9.688 C 160.841 9.688 161.043 9.728 161.232 9.809 C 161.607 9.968 161.907 10.267 162.066 10.643 C 162.147 10.832 162.187 11.034 162.187 11.25 C 162.187 11.466 162.147 11.669 162.066 11.857 C 161.907 12.233 161.607 12.532 161.232 12.692 C 161.04 12.773 160.833 12.814 160.624 12.813 C 160.408 12.813 160.206 12.772 160.017 12.691 C 159.641 12.532 159.342 12.233 159.183 11.857 C 159.102 11.665 159.06 11.459 159.062 11.25 C 159.062 11.034 159.102 10.831 159.183 10.643 C 159.342 10.267 159.641 9.968 160.017 9.809 C 160.209 9.727 160.416 9.686 160.624 9.688 Z M 160.624 10.063 C 160.406 10.063 160.207 10.116 160.027 10.223 C 159.847 10.33 159.704 10.473 159.597 10.653 C 159.49 10.833 159.435 11.04 159.437 11.25 C 159.437 11.469 159.49 11.668 159.597 11.848 C 159.704 12.027 159.847 12.17 160.027 12.277 C 160.208 12.384 160.414 12.44 160.624 12.438 C 160.843 12.438 161.042 12.384 161.222 12.277 C 161.399 12.173 161.547 12.025 161.652 11.848 C 161.759 11.667 161.814 11.46 161.812 11.25 C 161.812 11.031 161.758 10.832 161.652 10.653 C 161.547 10.475 161.399 10.327 161.222 10.223 C 161.041 10.116 160.834 10.06 160.624 10.063 Z M 160.808 10.512 C 160.875 10.514 160.94 10.531 160.999 10.563 C 161.068 10.595 161.127 10.646 161.175 10.715 C 161.225 10.783 161.249 10.869 161.249 10.973 C 161.249 11.078 161.224 11.168 161.173 11.242 C 161.131 11.304 161.076 11.355 161.012 11.394 L 161.308 11.953 L 160.96 11.953 L 160.708 11.465 L 160.394 11.465 L 160.394 11.953 L 160.078 11.953 L 160.078 10.512 Z M 160.394 11.231 L 160.687 11.231 C 160.73 11.231 160.776 11.209 160.826 11.166 C 160.876 11.123 160.902 11.059 160.902 10.973 C 160.902 10.884 160.876 10.824 160.826 10.793 C 160.776 10.762 160.732 10.746 160.695 10.746 L 160.394 10.746 L 160.394 11.23 Z" fill="transparent" height="39.999524068577934px" id="mE68abdlw" width="162.1868810649308px"><path d="M 16.25 0.839 C 18.342 -0.28 20.854 -0.28 22.946 0.839 L 32.23 5.801 C 32.445 5.916 32.482 6.209 32.303 6.375 L 30.907 7.667 C 30.796 7.77 30.633 7.791 30.5 7.72 L 22.86 3.661 C 20.776 2.553 18.278 2.553 16.195 3.661 L 6.255 8.942 C 3.936 10.175 2.486 12.588 2.486 15.214 L 2.486 24.786 C 2.486 27.413 3.936 29.826 6.255 31.058 L 16.195 36.339 C 18.279 37.447 20.776 37.447 22.86 36.339 L 30.5 32.28 C 30.633 32.209 30.797 32.23 30.907 32.333 L 32.303 33.625 C 32.388 33.703 32.429 33.817 32.415 33.931 C 32.4 34.045 32.331 34.145 32.23 34.199 L 22.946 39.161 C 20.854 40.279 18.342 40.279 16.25 39.161 L 3.754 32.482 C 1.443 31.247 0 28.839 0 26.219 L 0 13.781 C 0 11.161 1.443 8.753 3.754 7.518 Z" fill="var(--r5s4bu, rgb(154,162,247))" height="39.999524068578694px" id="ADTcVicOV" transform="translate(0 0)" width="32.41741882900254px"/><path d="M 24.493 4.952 C 24.577 4.873 24.618 4.76 24.604 4.646 C 24.589 4.532 24.52 4.433 24.419 4.378 L 17.427 0.632 C 15.856 -0.211 13.967 -0.211 12.396 0.632 L 2.811 5.767 C 1.08 6.695 0 8.499 0 10.462 L 0 20.064 C 0 22.028 1.08 23.832 2.811 24.759 L 12.396 29.895 C 13.967 30.737 15.856 30.737 17.427 29.895 L 24.419 26.148 C 24.52 26.094 24.588 25.995 24.603 25.881 C 24.618 25.768 24.577 25.654 24.493 25.576 L 18.99 20.47 C 15.962 17.66 15.962 12.868 18.99 10.058 L 24.493 4.951 Z" fill="rgb(69, 85, 255)" height="30.526867071009107px" id="bhsUiC5b_" transform="translate(4.261 4.737)" width="24.606462985470294px"/><path d="M 114.305 20.288 C 113.881 19.781 113.561 19.198 113.341 18.538 C 113.138 17.879 113.036 16.949 113.036 15.749 L 113.036 0 L 116.485 0 L 116.485 15.343 C 116.485 16.662 116.63 17.676 116.916 18.386 C 117.205 19.079 117.576 19.662 118.033 20.136 L 118.033 20.288 L 114.305 20.288 Z M 102.36 20.618 C 101.008 20.618 99.875 20.288 98.962 19.629 C 98.049 18.952 97.356 18.014 96.882 16.814 C 96.426 15.613 96.198 14.227 96.198 12.654 C 96.198 11.065 96.426 9.679 96.882 8.495 C 97.356 7.312 98.049 6.39 98.962 5.731 C 99.891 5.072 101.033 4.742 102.386 4.742 C 103.485 4.742 104.371 4.962 105.049 5.401 C 105.741 5.841 106.249 6.39 106.57 7.05 L 107.179 7.05 L 107.179 5.072 L 110.298 5.072 L 110.298 20.288 L 107.179 20.288 L 107.179 18.31 L 106.57 18.31 C 106.249 18.936 105.741 19.477 105.049 19.933 C 104.371 20.389 103.476 20.618 102.36 20.618 Z M 103.146 18.031 C 104.296 18.031 105.209 17.549 105.885 16.585 C 106.561 15.605 106.9 14.303 106.9 12.68 C 106.9 11.057 106.561 9.763 105.885 8.8 C 105.209 7.819 104.296 7.329 103.146 7.329 C 102.064 7.329 101.228 7.785 100.636 8.698 C 100.044 9.611 99.748 10.939 99.748 12.68 C 99.748 14.421 100.044 15.749 100.636 16.662 C 101.228 17.575 102.064 18.031 103.146 18.031 Z M 87.666 20.288 L 87.666 5.072 L 90.76 5.072 L 90.76 7.76 L 91.369 7.76 C 91.471 7.303 91.656 6.855 91.927 6.416 C 92.198 5.976 92.612 5.621 93.17 5.351 C 93.745 5.063 94.522 4.919 95.503 4.919 L 96.162 4.919 L 96.162 8.064 L 95.224 8.064 C 93.753 8.064 92.696 8.445 92.054 9.206 C 91.411 9.966 91.09 11.124 91.09 12.68 L 91.09 20.288 Z M 81.453 20.288 C 81.065 19.832 80.752 19.282 80.515 18.64 C 80.295 17.997 80.185 17.034 80.185 15.749 L 80.185 7.582 L 78.106 7.582 L 78.106 5.072 L 80.236 5.072 L 80.236 1.268 L 83.584 1.268 L 83.584 5.072 L 86.094 5.072 L 86.094 7.582 L 83.609 7.582 L 83.609 15.317 C 83.609 16.67 83.753 17.701 84.04 18.411 C 84.345 19.105 84.708 19.679 85.131 20.136 L 85.131 20.288 Z M 71.829 20.668 C 70.274 20.668 69.014 20.415 68.051 19.908 C 67.104 19.384 66.394 18.716 65.92 17.904 C 65.464 17.093 65.21 16.264 65.16 15.419 L 68.456 15.419 C 68.524 15.892 68.693 16.34 68.964 16.763 C 69.251 17.186 69.64 17.524 70.13 17.777 C 70.621 18.031 71.238 18.158 71.982 18.158 C 72.827 18.158 73.461 17.997 73.884 17.676 C 74.306 17.338 74.518 16.898 74.518 16.357 C 74.518 15.901 74.34 15.512 73.985 15.191 C 73.63 14.852 73.072 14.548 72.311 14.278 L 70.485 13.669 C 69.64 13.365 68.862 13.035 68.152 12.68 C 67.459 12.308 66.901 11.843 66.478 11.285 C 66.073 10.71 65.87 9.983 65.87 9.104 C 65.87 7.785 66.36 6.72 67.341 5.909 C 68.321 5.097 69.691 4.691 71.449 4.691 C 72.717 4.691 73.757 4.903 74.568 5.325 C 75.397 5.731 76.022 6.289 76.445 6.999 C 76.868 7.692 77.113 8.47 77.181 9.332 L 74.01 9.332 C 73.926 8.707 73.664 8.183 73.224 7.76 C 72.802 7.337 72.168 7.126 71.322 7.126 C 70.595 7.126 70.037 7.278 69.648 7.582 C 69.276 7.887 69.09 8.293 69.09 8.8 C 69.09 9.307 69.276 9.73 69.648 10.068 C 70.037 10.389 70.621 10.685 71.398 10.955 L 73.199 11.539 C 74.044 11.826 74.814 12.156 75.507 12.528 C 76.2 12.883 76.741 13.348 77.13 13.923 C 77.536 14.48 77.738 15.199 77.738 16.078 C 77.738 17.448 77.231 18.555 76.217 19.401 C 75.219 20.246 73.757 20.668 71.829 20.668 Z M 55.726 20.618 C 54.373 20.618 53.24 20.288 52.327 19.629 C 51.414 18.952 50.721 18.014 50.248 16.814 C 49.791 15.613 49.563 14.227 49.563 12.654 C 49.563 11.065 49.791 9.679 50.248 8.495 C 50.721 7.312 51.414 6.39 52.327 5.731 C 53.257 5.072 54.398 4.742 55.751 4.742 C 56.85 4.742 57.738 4.962 58.414 5.401 C 59.107 5.841 59.614 6.39 59.935 7.05 L 60.544 7.05 L 60.544 5.072 L 63.663 5.072 L 63.663 20.288 L 60.544 20.288 L 60.544 18.31 L 59.935 18.31 C 59.614 18.936 59.107 19.477 58.414 19.933 C 57.738 20.389 56.841 20.618 55.726 20.618 Z M 56.512 18.031 C 57.661 18.031 58.574 17.549 59.251 16.585 C 59.927 15.605 60.265 14.303 60.265 12.68 C 60.265 11.057 59.927 9.763 59.251 8.8 C 58.574 7.819 57.661 7.329 56.512 7.329 C 55.43 7.329 54.593 7.785 54.001 8.698 C 53.409 9.611 53.113 10.939 53.113 12.68 C 53.113 14.421 53.409 15.749 54.001 16.662 C 54.593 17.575 55.43 18.031 56.512 18.031 Z M 39.748 20.618 C 38.412 20.618 37.288 20.288 36.375 19.629 C 35.479 18.952 34.794 18.014 34.321 16.814 C 33.864 15.613 33.636 14.227 33.636 12.654 C 33.636 11.065 33.864 9.679 34.321 8.495 C 34.794 7.312 35.479 6.39 36.375 5.731 C 37.288 5.072 38.404 4.742 39.723 4.742 C 40.737 4.742 41.566 4.928 42.208 5.3 C 42.851 5.672 43.349 6.179 43.704 6.822 L 44.313 6.822 L 44.313 0 L 47.737 0 L 47.737 20.288 L 44.617 20.288 L 44.617 18.31 L 44.009 18.31 C 43.687 18.936 43.18 19.476 42.487 19.933 C 41.811 20.389 40.898 20.618 39.748 20.618 Z M 40.585 18.031 C 41.735 18.031 42.648 17.549 43.324 16.585 C 44 15.605 44.338 14.303 44.338 12.68 C 44.338 11.057 44 9.763 43.324 8.8 C 42.648 7.819 41.735 7.329 40.585 7.329 C 39.503 7.329 38.666 7.785 38.074 8.698 C 37.482 9.611 37.187 10.938 37.187 12.68 C 37.187 14.421 37.482 15.748 38.074 16.661 C 38.666 17.574 39.503 18.031 40.585 18.031 Z M 23.923 20.618 C 22.571 20.618 21.438 20.288 20.525 19.629 C 19.612 18.952 18.919 18.014 18.445 16.814 C 17.989 15.613 17.761 14.227 17.761 12.654 C 17.761 11.065 17.989 9.679 18.445 8.495 C 18.919 7.312 19.612 6.39 20.525 5.731 C 21.455 5.072 22.596 4.742 23.949 4.742 C 25.048 4.742 25.935 4.962 26.611 5.401 C 27.305 5.841 27.812 6.39 28.133 7.05 L 28.742 7.05 L 28.742 5.072 L 31.861 5.072 L 31.861 20.288 L 28.742 20.288 L 28.742 18.31 L 28.133 18.31 C 27.812 18.936 27.305 19.477 26.611 19.933 C 25.935 20.389 25.039 20.618 23.923 20.618 Z M 24.709 18.031 C 25.859 18.031 26.772 17.549 27.448 16.585 C 28.125 15.605 28.463 14.303 28.463 12.68 C 28.463 11.057 28.125 9.763 27.448 8.8 C 26.772 7.819 25.859 7.329 24.709 7.329 C 23.627 7.329 22.79 7.785 22.199 8.698 C 21.607 9.611 21.311 10.939 21.311 12.68 C 21.311 14.421 21.607 15.749 22.199 16.662 C 22.79 17.575 23.627 18.031 24.709 18.031 Z M 8.877 20.668 C 6.07 20.668 3.889 19.764 2.334 17.955 C 0.778 16.146 0 13.627 0 10.397 C 0 7.168 0.77 4.649 2.308 2.84 C 3.864 1.031 6.045 0.126 8.851 0.126 C 10.508 0.126 11.937 0.439 13.137 1.065 C 14.338 1.69 15.276 2.561 15.952 3.677 C 16.645 4.793 17.06 6.086 17.195 7.557 L 13.619 7.557 C 13.467 6.12 12.968 4.979 12.123 4.133 C 11.294 3.288 10.204 2.865 8.851 2.865 C 7.161 2.865 5.867 3.525 4.971 4.843 C 4.092 6.162 3.652 8.022 3.652 10.423 C 3.652 12.857 4.1 14.717 4.996 16.002 C 5.909 17.287 7.186 17.93 8.826 17.93 C 10.246 17.93 11.37 17.49 12.199 16.611 C 13.027 15.732 13.501 14.607 13.619 13.238 L 17.195 13.238 C 17.06 14.692 16.645 15.985 15.952 17.118 C 15.276 18.234 14.338 19.105 13.137 19.73 C 11.954 20.356 10.534 20.668 8.877 20.668 Z M 120.6 0.022 C 120.816 0.022 121.018 0.062 121.207 0.143 C 121.583 0.302 121.882 0.601 122.041 0.977 C 122.122 1.166 122.162 1.368 122.162 1.584 C 122.162 1.8 122.122 2.003 122.041 2.191 C 121.882 2.567 121.583 2.866 121.207 3.026 C 121.015 3.107 120.808 3.148 120.6 3.147 C 120.383 3.147 120.181 3.106 119.992 3.025 C 119.617 2.866 119.317 2.567 119.158 2.191 C 119.077 1.999 119.036 1.793 119.037 1.584 C 119.037 1.368 119.077 1.165 119.158 0.977 C 119.317 0.601 119.616 0.302 119.992 0.142 C 120.184 0.061 120.391 0.02 120.6 0.022 Z M 120.6 0.397 C 120.381 0.397 120.182 0.45 120.002 0.557 C 119.822 0.664 119.679 0.807 119.572 0.987 C 119.465 1.167 119.41 1.374 119.412 1.584 C 119.412 1.803 119.465 2.002 119.572 2.182 C 119.679 2.361 119.822 2.504 120.002 2.611 C 120.183 2.718 120.389 2.774 120.6 2.772 C 120.818 2.772 121.017 2.718 121.197 2.611 C 121.374 2.507 121.522 2.359 121.627 2.182 C 121.734 2.001 121.789 1.794 121.787 1.584 C 121.787 1.365 121.734 1.166 121.627 0.987 C 121.522 0.809 121.374 0.661 121.197 0.557 C 121.016 0.45 120.81 0.394 120.6 0.397 Z M 120.783 0.846 C 120.85 0.848 120.915 0.865 120.975 0.897 C 121.044 0.929 121.102 0.98 121.15 1.049 C 121.2 1.117 121.225 1.202 121.225 1.307 C 121.225 1.412 121.199 1.502 121.148 1.576 C 121.106 1.638 121.051 1.689 120.987 1.727 L 121.283 2.287 L 120.935 2.287 L 120.683 1.799 L 120.369 1.799 L 120.369 2.287 L 120.053 2.287 L 120.053 0.846 Z M 120.369 1.565 L 120.662 1.565 C 120.705 1.565 120.751 1.543 120.801 1.5 C 120.851 1.457 120.877 1.392 120.877 1.307 C 120.877 1.218 120.851 1.158 120.801 1.127 C 120.751 1.096 120.707 1.08 120.67 1.08 L 120.369 1.08 L 120.369 1.564 Z" fill="rgb(237, 238, 248)" height="20.668046141779087px" id="j22G7B67U" transform="translate(40.025 9.666)" width="122.1620321269425px"/></g></svg></svg>